<?xml version="1.0" encoding="UTF-8" standalone="no"?>
<svg xmlns:dc="http://purl.org/dc/elements/1.1/" xmlns:cc="http://creativecommons.org/ns#" xmlns:rdf="http://www.w3.org/1999/02/22-rdf-syntax-ns#" xmlns:svg="http://www.w3.org/2000/svg" xmlns="http://www.w3.org/2000/svg" id="svg189" version="1.1" viewBox="0 0 16 16" height="16" width="16">
  <metadata id="metadata11">
    <rdf:RDF>
      <cc:Work rdf:about="">
        <dc:format>image/svg+xml</dc:format>
        <dc:type rdf:resource="http://purl.org/dc/dcmitype/StillImage" />
        <dc:title></dc:title>
      </cc:Work>
    </rdf:RDF>
  </metadata>
  <defs id="defs9" />
  <path id="rect43-3" style="opacity:1;fill:#241f31;fill-opacity:1;stroke-width:0.15236;marker:none" d="M 1.3417969 0 C 0.59849876 0 -1.4802974e-16 0.5874031 0 1.3164062 L 0 1.6230469 L 0 14.376953 L 0 14.683594 C 0 15.412597 0.59849879 16 1.3417969 16 L 14.658203 16 C 15.4015 16 16 15.412597 16 14.683594 L 16 14.376953 L 16 1.6230469 L 16 1.3164062 C 16 0.5874031 15.4015 -1.4802974e-16 14.658203 0 L 1.3417969 0 z M 8.1328125 3 C 10.585283 3 12.353375 4.3687542 12.5625 6.7832031 L 9.8828125 6.7832031 C 9.8067673 5.8991725 9.2260943 5.3007812 8.2089844 5.3007812 C 6.8781863 5.3007812 6.15625 6.3079852 6.15625 8 C 6.15625 9.7870729 6.9014301 10.699219 8.1894531 10.699219 C 9.1590342 10.699219 9.7497323 10.181359 9.8828125 9.3496094 L 12.5625 9.3691406 C 12.42942 11.023133 10.984523 13 8.1328125 13 C 5.4522038 13 3.4375 11.236692 3.4375 8 C 3.4375 4.7490497 5.5092377 3 8.1328125 3 z " />
</svg>
