<?xml version="1.0" encoding="UTF-8" standalone="no"?>
<svg xmlns:dc="http://purl.org/dc/elements/1.1/" xmlns:cc="http://creativecommons.org/ns#" xmlns:rdf="http://www.w3.org/1999/02/22-rdf-syntax-ns#" xmlns:svg="http://www.w3.org/2000/svg" xmlns="http://www.w3.org/2000/svg" viewBox="0 0 128 128" style="display:inline;enable-background:new" version="1.0" id="svg11300" height="128" width="128">
  <metadata id="metadata11">
    <rdf:RDF>
      <cc:Work rdf:about="">
        <dc:format>image/svg+xml</dc:format>
        <dc:type rdf:resource="http://purl.org/dc/dcmitype/StillImage" />
        <dc:title></dc:title>
      </cc:Work>
    </rdf:RDF>
  </metadata>
  <defs id="defs9" />
  <rect ry="8.5" rx="8" y="14" x="12" height="102" width="103.99991" id="rect941" style="display:inline;fill:#63452c;fill-opacity:1;stroke:none;stroke-width:8.27198;stroke-linecap:butt;stroke-linejoin:miter;stroke-miterlimit:4;stroke-dasharray:none;stroke-dashoffset:0;stroke-opacity:1;marker:none;marker-start:none;marker-mid:none;marker-end:none;paint-order:normal;enable-background:new" />
  <path id="rect43-3" style="opacity:1;fill:#b5835a;fill-opacity:1;stroke-width:0.98077;marker:none" d="M 20.7217,12 C 15.89025,12 12,15.744695 12,20.392088 v 1.954836 81.306146 1.95484 C 12,110.25531 15.89025,114 20.7217,114 h 86.5566 C 112.10975,114 116,110.25531 116,105.60791 V 103.65307 22.346924 20.392088 C 116,15.744695 112.10975,12 107.2783,12 Z" />
  <g aria-label="C" id="text12" style="font-style:normal;font-variant:normal;font-weight:900;font-stretch:normal;font-size:112px;line-height:25px;font-family:'Inter UI';-inkscape-font-specification:'Inter UI, Heavy';font-variant-ligatures:normal;font-variant-caps:normal;font-variant-numeric:normal;font-variant-east-asian:normal;letter-spacing:0px;word-spacing:0px;fill:#ffffff;fill-opacity:1;stroke:none;stroke-width:1px;stroke-linecap:butt;stroke-linejoin:miter;stroke-opacity:1" transform="matrix(0.76480178,0,0,0.76480178,-36.458821,-17.777779)">
    <path d="m 168.0953,96.744947 c -1.75,-20.204546 -16.54546,-31.659091 -37.06818,-31.659091 -21.95455,0 -39.295459,14.636363 -39.295459,41.840904 0,27.08523 16.863639,41.84091 39.295459,41.84091 23.86363,0 35.95454,-16.54545 37.06818,-30.38636 l -22.43182,-0.15909 c -1.11364,6.96023 -6.04546,11.29545 -14.15909,11.29545 -10.77841,0 -17.02273,-7.63636 -17.02273,-22.59091 0,-14.159086 6.04546,-22.590904 17.18182,-22.590904 8.51136,0 13.36364,5.011363 14,12.409091 z" id="path837" style="fill:#ffffff" />
  </g>
</svg>
