<?xml version="1.0" encoding="UTF-8" standalone="no"?>
<svg xmlns:dc="http://purl.org/dc/elements/1.1/" xmlns:cc="http://creativecommons.org/ns#" xmlns:rdf="http://www.w3.org/1999/02/22-rdf-syntax-ns#" xmlns:svg="http://www.w3.org/2000/svg" xmlns="http://www.w3.org/2000/svg" viewBox="0 0 128 128" style="display:inline;enable-background:new" version="1.0" id="svg11300" height="128" width="128">
  <metadata id="metadata11">
    <rdf:RDF>
      <cc:Work rdf:about="">
        <dc:format>image/svg+xml</dc:format>
        <dc:type rdf:resource="http://purl.org/dc/dcmitype/StillImage" />
        <dc:title></dc:title>
      </cc:Work>
    </rdf:RDF>
  </metadata>
  <defs id="defs9" />
  <rect style="fill:#ffffff;stroke-width:0.15317;paint-order:markers fill stroke;stop-color:#000000" id="rect8" width="80" height="80" x="24" y="24" ry="1.2946061e-16" />
  <path id="rect43-3" style="opacity:1;fill:#c061cb;fill-opacity:1;stroke-width:0.990339;marker:none" d="M 20.7217,12 C 15.89025,12 12,15.81812 12,20.556639 v 1.993166 82.900385 1.99317 C 12,112.18188 15.89025,116 20.7217,116 h 86.5566 C 112.10975,116 116,112.18188 116,107.44336 V 105.45019 22.549805 20.556639 C 116,15.81812 112.10975,12 107.2783,12 Z M 44.5,38 v -6.5 h 39 V 38 H 90 V 57.5 H 77 v -13 H 51 v 39 h 26 v -13 H 90 V 90 h -6.5 v 6.5 h -39 V 90 H 38 V 38 Z" />
</svg>
